<svg height="512pt" viewBox="-20 0 512 512" width="512pt" xmlns="http://www.w3.org/2000/svg"><path d="m374.675781 58.753906c-15.273437 0-29.949219 3.480469-43.269531 10.171875-8.328125-17.269531-20.746094-32.582031-36.089844-44.242187-21.25-16.148438-46.621094-24.683594-73.375-24.683594-27.988281 0-55.304687 9.757812-76.914062 27.472656-16.921875 13.867188-29.777344 32.101563-37.203125 52.453125-6.628907-1.589843-13.441407-2.390625-20.378907-2.390625-48.21875 0-87.445312 39.226563-87.445312 87.445313s39.226562 87.445312 87.445312 87.445312h287.230469c53.394531 0 96.835938-43.441406 96.835938-96.835937 0-53.394532-43.441407-96.835938-96.835938-96.835938zm0 0" fill="#cff9ff"/><path d="m374.675781 58.753906c-15.273437 0-29.949219 3.480469-43.269531 10.171875-8.328125-17.269531-20.746094-32.582031-36.089844-44.242187-21.085937-16.023438-46.238281-24.542969-72.765625-24.6718752v252.4140622h152.125c53.394531 0 96.835938-43.441406 96.835938-96.835937 0-53.394532-43.441407-96.835938-96.835938-96.835938zm0 0" fill="#96e8ff"/><path d="m307.3125 277.839844-47.757812-28.078125 28.347656-153.132813-146 189.875 47.476562 26.234375-51.585937 199.261719zm0 0" fill="#ffbc36"/><path d="m259.628906 249.367188 28.273438-152.738282-146 189.875 46.992187 25.964844zm0 0" fill="#ffe45c"/></svg>